<svg width="20" height="21" viewBox="0 0 20 21" fill="none" xmlns="http://www.w3.org/2000/svg">
<g clip-path="url(#clip0_37_4082)">
<path d="M9.99998 7.16665C10.9166 7.16665 11.6666 6.41665 11.6666 5.49998C11.6666 4.58331 10.9166 3.83331 9.99998 3.83331C9.08331 3.83331 8.33331 4.58331 8.33331 5.49998C8.33331 6.41665 9.08331 7.16665 9.99998 7.16665ZM9.99998 8.83331C9.08331 8.83331 8.33331 9.58331 8.33331 10.5C8.33331 11.4166 9.08331 12.1666 9.99998 12.1666C10.9166 12.1666 11.6666 11.4166 11.6666 10.5C11.6666 9.58331 10.9166 8.83331 9.99998 8.83331ZM9.99998 13.8333C9.08331 13.8333 8.33331 14.5833 8.33331 15.5C8.33331 16.4166 9.08331 17.1666 9.99998 17.1666C10.9166 17.1666 11.6666 16.4166 11.6666 15.5C11.6666 14.5833 10.9166 13.8333 9.99998 13.8333Z" fill="#718096" fill-opacity="0.5"/>
</g>
<defs>
<clipPath id="clip0_37_4082">
<rect width="20" height="20" fill="white" transform="translate(0 0.5)"/>
</clipPath>
</defs>
</svg>
